<svg fill="currentColor" style="color: #E7E9EC" version="1.1" xmlns="http://www.w3.org/2000/svg" xmlns:xlink="http://www.w3.org/1999/xlink" width="24" height="24" viewBox="0 0 24 24">
    <path d="M12 1a3 3 0 1 0 0 6 3 3 0 0 0 0-6zM4 9a3 3 0 1 0 0 6 3 3 0 0 0 0-6zm8 0a3 3 0 1 0 0 6 3 3 0 0 0 0-6zm8 0a3 3 0 1 0 0 6 3 3 0 0 0 0-6zm0-8a3 3 0 1 0 0 6 3 3 0 0 0 0-6zM4 1a3 3 0 1 0 0 6 3 3 0 0 0 0-6zm8 16a3 3 0 1 0 0 6 3 3 0 0 0 0-6zm8 0a3 3 0 1 0 0 6 3 3 0 0 0 0-6zM4 17a3 3 0 1 0 0 6 3 3 0 0 0 0-6z"></path>
</svg>